<?xml version="1.0" standalone="no"?>
<!DOCTYPE svg PUBLIC "-//W3C//DTD SVG 20010904//EN"
 "http://www.w3.org/TR/2001/REC-SVG-20010904/DTD/svg10.dtd">
<svg version="1.0" xmlns="http://www.w3.org/2000/svg"
 width="260.000000pt" height="260.000000pt" viewBox="0 0 260.000000 260.000000"
 preserveAspectRatio="xMidYMid meet">
<metadata>
Created by potrace 1.14, written by Peter Selinger 2001-2017
</metadata>
<g transform="translate(0.000000,260.000000) scale(0.100000,-0.100000)"
fill="#000000" stroke="none">
<path d="M0 1300 l0 -1300 1300 0 1300 0 0 1300 0 1300 -1300 0 -1300 0 0
-1300z m1831 1019 c87 -29 165 -121 177 -206 l7 -48 135 -5 c118 -4 142 -8
190 -31 68 -32 139 -99 168 -160 35 -72 42 -139 33 -304 -4 -82 -9 -134 -10
-115 -3 62 -21 71 -21 11 0 -30 -2 -52 -5 -49 -3 3 -9 86 -14 184 -6 149 -11
187 -29 226 -31 70 -102 141 -175 174 -55 25 -76 29 -184 32 -95 3 -123 7
-123 18 0 31 -34 112 -63 148 -17 22 -53 49 -81 62 l-51 24 -485 0 -485 0 -51
-24 c-28 -13 -65 -41 -82 -62 -31 -37 -62 -110 -62 -145 0 -15 -15 -17 -122
-21 -110 -3 -130 -7 -186 -32 -125 -58 -201 -177 -203 -319 -1 -90 -15 -255
-17 -205 -3 53 -22 58 -23 6 -1 -33 -4 -25 -11 32 -14 114 -5 264 21 331 28
73 103 152 178 187 51 24 73 28 193 32 l135 5 6 46 c13 90 85 176 174 207 44
15 1021 16 1066 1z m-375 -1775 c-3 -8 -27 -24 -53 -35 -42 -18 -67 -21 -192
-20 -80 1 -147 4 -150 6 -2 3 25 5 62 5 61 0 94 12 65 23 -7 3 10 6 37 6 79 2
202 43 223 75 9 13 16 -40 8 -60z"/>
</g>
</svg>
